<?xml version="1.0" encoding="UTF-8" standalone="no"?>
<svg width="40px" height="40px" viewBox="0 0 40 40" version="1.1" xmlns="http://www.w3.org/2000/svg" xmlns:xlink="http://www.w3.org/1999/xlink">
    <!-- Generator: Sketch 41 (35326) - http://www.bohemiancoding.com/sketch -->
    <title>Slice 1</title>
    <desc>Created with Sketch.</desc>
    <defs></defs>
    <g id="Page-1" stroke="none" stroke-width="1" fill="none" fill-rule="evenodd">
        <g id="Group">
            <ellipse id="Oval" fill="#FFC830" cx="19.8693617" cy="19.8714894" rx="19.7182979" ry="19.7182979"></ellipse>
            <path d="M19.8685106,39.5889362 C30.7595745,39.5889362 39.5876596,30.7617021 39.5876596,19.8714894 L0.15106383,19.8714894 C0.15106383,30.7617021 8.9787234,39.5889362 19.8685106,39.5889362 Z" id="Shape" fill="#EFB31D"></path>
        </g>
        <g id="noun_654239_cc" transform="translate(5.000000, 9.000000)">
            <polygon id="Path-6" stroke="#FFD86F" fill="#FFD86F" points="6.53320312 9.34960938 6.6628418 7.44677734 8.51757812 7.12719727 12.8540039 7.12719727 13.6948242 7.96582031 13.6948242 8.95800781 13.6948242 9.49365234"></polygon>
            <polygon id="Path-7" stroke="#FFD86F" fill="#FFD86F" points="17.4301758 9.34594727 17.7114258 7.44555664 19.609375 7.05883789 22.7443848 7.05883789 24.1689453 7.31835938 24.5605469 8.73339844 24.5605469 9.61743164"></polygon>
            <path d="M26.661377,17.8708496 L26.5458984,20 L26.661377,17.8708496 Z" id="Path-4" stroke="#A87B14" stroke-width="2"></path>
            <path d="M4.63232422,18 L4.50244141,19.6245117 L4.63232422,18 Z" id="Path-3" stroke="#A87B14" stroke-width="2"></path>
            <polygon id="Path-5" stroke="#CDA128" fill="#CDA128" points="1.33618164 11.9882812 1.5546875 10.546875 2.890625 10.546875 29.6533203 10.6333008 29.4680176 16.8122559 1.71020508 16.7543945 1.08325195 15.5893555"></polygon>
            <polygon id="Path-2" stroke="#A87B14" fill="#A87B14" points="4.20629883 9.13061523 4.31689453 3.73242188 6.47436523 1.52954102 9.04492188 1.63989258 13.1264648 1.70483398 18.2028809 1.57519531 24.1054688 1.59912109 26.8513184 2.49023438 26.9616699 4.36669922 27.0698242 7.66992187 27.0722656 9.42114258 26.0559082 9.42114258 25.6020508 8.21508789 24.8476562 6.70629883 23.9440918 6.08422852 20.8115234 5.9543457 17.5515137 6.36523437 16.4343262 7.01611328 15.8120117 8.54882812 16.0065918 9.03686523 16.0712891 9.79125977 14.4953613 9.59667969 15.1176758 7.23510742 13.5632324 6.37255859 10.3896484 6.17797852 6.72363281 6.48071289 5.51513672 7.19433594 5.58007812 8.75097656 5.51513672 9.39477539 4.04736328 9.5246582"></polygon>
            <path d="M0.160363636,15.9103636 C0.162465049,17.0692901 1.10143721,18.0082622 2.26036364,18.0103636 L3.024,18.0103636 L3.024,19.2283636 C3.024,20.0939947 3.7257326,20.7957273 4.59136364,20.7957273 C5.45699467,20.7957273 6.15872727,20.0939947 6.15872727,19.2283636 L6.15872727,18.0103636 L24.9632727,18.0103636 L24.9632727,19.2283636 C24.9632727,20.0939947 25.6650053,20.7957273 26.5306364,20.7957273 C27.3962674,20.7957273 28.098,20.0939947 28.098,19.2283636 L28.098,18.0103636 L28.8616364,18.0103636 C30.0205628,18.0082622 30.959535,17.0692901 30.9616364,15.9103636 L30.9616364,11.5805455 C30.959535,10.421619 30.0205628,9.48264687 28.8616364,9.48054545 L28.098,9.48054545 L28.098,4.70018182 C28.0958948,2.27602224 26.1312505,0.311377947 23.7070909,0.309272727 L7.41490909,0.309272727 C4.99074951,0.311377947 3.02610522,2.27602224 3.024,4.70018182 L3.024,9.48054545 L2.26036364,9.48054545 C1.10143721,9.48264687 0.162465049,10.421619 0.160363636,11.5805455 L0.160363636,15.9103636 Z M5.01327273,19.2283636 C5.01327273,19.4613776 4.82437759,19.6502727 4.59136364,19.6502727 C4.35834968,19.6502727 4.16945455,19.4613776 4.16945455,19.2283636 L4.16945455,18.0103636 L5.01327273,18.0103636 L5.01327273,19.2283636 Z M26.9525455,19.2283636 C26.9525455,19.4613776 26.7636503,19.6502727 26.5306364,19.6502727 C26.2976224,19.6502727 26.1087273,19.4613776 26.1087273,19.2283636 L26.1087273,18.0103636 L26.9525455,18.0103636 L26.9525455,19.2283636 Z M4.16945455,4.71927273 C4.17155853,2.9277299 5.62336626,1.47592217 7.41490909,1.47381818 L23.7032727,1.47381818 C25.4948156,1.47592217 26.9466233,2.9277299 26.9487273,4.71927273 L26.9487273,9.48054545 L25.7421818,9.48054545 L25.7421818,8.57945455 C25.7400793,7.20965606 24.6301621,6.0997389 23.2603636,6.09763636 L18.5907273,6.09763636 C17.2209288,6.0997389 16.1110116,7.20965606 16.1089091,8.57945455 L16.1089091,9.48054545 L14.9634545,9.48054545 L14.9634545,8.57945455 C14.961352,7.20965606 13.8514349,6.0997389 12.4816364,6.09763636 L7.80054545,6.09763636 C6.43074696,6.0997389 5.32082981,7.20965606 5.31872727,8.57945455 L5.31872727,9.48054545 L4.17327273,9.48054545 L4.16945455,4.71927273 Z M24.5967273,8.57945455 L24.5967273,9.48054545 L17.2543636,9.48054545 L17.2543636,8.57945455 C17.2543636,7.84140129 17.852674,7.24309091 18.5907273,7.24309091 L23.2603636,7.24309091 C23.9984169,7.24309091 24.5967273,7.84140129 24.5967273,8.57945455 L24.5967273,8.57945455 Z M13.8103636,8.57945455 L13.8103636,9.48054545 L6.46418182,9.48054545 L6.46418182,8.57945455 C6.46418182,7.84140129 7.0624922,7.24309091 7.80054545,7.24309091 L12.474,7.24309091 C13.2120533,7.24309091 13.8103636,7.84140129 13.8103636,8.57945455 L13.8103636,8.57945455 Z M1.30581818,11.5805455 C1.30581818,11.0533646 1.73318274,10.626 2.26036364,10.626 L28.8578182,10.626 C29.3849991,10.626 29.8123636,11.0533646 29.8123636,11.5805455 L29.8123636,15.9103636 C29.8123636,16.4375445 29.3849991,16.8649091 28.8578182,16.8649091 L2.26036364,16.8649091 C1.73318274,16.8649091 1.30581818,16.4375445 1.30581818,15.9103636 L1.30581818,11.5805455 Z" id="Shape" fill="#000000"></path>
        </g>
    </g>
</svg>