<?xml version="1.0" encoding="UTF-8" standalone="no"?>
<svg width="39px" height="26px" viewBox="0 0 39 26" version="1.1" xmlns="http://www.w3.org/2000/svg" xmlns:xlink="http://www.w3.org/1999/xlink">
    <!-- Generator: Sketch 41 (35326) - http://www.bohemiancoding.com/sketch -->
    <title>Slice 1</title>
    <desc>Created with Sketch.</desc>
    <defs></defs>
    <g id="Page-1" stroke="none" stroke-width="1" fill="none" fill-rule="evenodd">
        <g id="noun_654239_cc" fill="#000000">
            <path d="M0.198545455,19.6985455 C0.201147204,21.1334067 1.36368417,22.2959437 2.79854545,22.2985455 L3.744,22.2985455 L3.744,23.8065455 C3.744,24.8782791 4.61281179,25.7470909 5.68454545,25.7470909 C6.75627912,25.7470909 7.62509091,24.8782791 7.62509091,23.8065455 L7.62509091,22.2985455 L30.9069091,22.2985455 L30.9069091,23.8065455 C30.9069091,24.8782791 31.7757209,25.7470909 32.8474545,25.7470909 C33.9191882,25.7470909 34.788,24.8782791 34.788,23.8065455 L34.788,22.2985455 L35.7334545,22.2985455 C37.1683158,22.2959437 38.3308528,21.1334067 38.3334545,19.6985455 L38.3334545,14.3378182 C38.3308528,12.9029569 37.1683158,11.7404199 35.7334545,11.7378182 L34.788,11.7378182 L34.788,5.81927273 C34.7853935,2.81793229 32.3529768,0.385515554 29.3516364,0.382909091 L9.18036364,0.382909091 C6.1790232,0.385515554 3.74660646,2.81793229 3.744,5.81927273 L3.744,11.7378182 L2.79854545,11.7378182 C1.36368417,11.7404199 0.201147204,12.9029569 0.198545455,14.3378182 L0.198545455,19.6985455 Z M6.20690909,23.8065455 C6.20690909,24.0950389 5.97303892,24.3289091 5.68454545,24.3289091 C5.39605198,24.3289091 5.16218182,24.0950389 5.16218182,23.8065455 L5.16218182,22.2985455 L6.20690909,22.2985455 L6.20690909,23.8065455 Z M33.3698182,23.8065455 C33.3698182,24.0950389 33.135948,24.3289091 32.8474545,24.3289091 C32.5589611,24.3289091 32.3250909,24.0950389 32.3250909,23.8065455 L32.3250909,22.2985455 L33.3698182,22.2985455 L33.3698182,23.8065455 Z M5.16218182,5.84290909 C5.16478675,3.62480845 6.96226299,1.82733221 9.18036364,1.82472727 L29.3469091,1.82472727 C31.5650097,1.82733221 33.362486,3.62480845 33.3650909,5.84290909 L33.3650909,11.7378182 L31.8712727,11.7378182 L31.8712727,10.6221818 C31.8686696,8.92624083 30.4944864,7.55205768 28.7985455,7.54945455 L23.0170909,7.54945455 C21.3211499,7.55205768 19.9469668,8.92624083 19.9443636,10.6221818 L19.9443636,11.7378182 L18.5261818,11.7378182 L18.5261818,10.6221818 C18.5235787,8.92624083 17.1493955,7.55205768 15.4534545,7.54945455 L9.65781818,7.54945455 C7.96187719,7.55205768 6.58769405,8.92624083 6.58509091,10.6221818 L6.58509091,11.7378182 L5.16690909,11.7378182 L5.16218182,5.84290909 Z M30.4530909,10.6221818 L30.4530909,11.7378182 L21.3625455,11.7378182 L21.3625455,10.6221818 C21.3625455,9.7084016 22.1033107,8.96763636 23.0170909,8.96763636 L28.7985455,8.96763636 C29.7123257,8.96763636 30.4530909,9.7084016 30.4530909,10.6221818 L30.4530909,10.6221818 Z M17.0985455,10.6221818 L17.0985455,11.7378182 L8.00327273,11.7378182 L8.00327273,10.6221818 C8.00327273,9.7084016 8.74403796,8.96763636 9.65781818,8.96763636 L15.444,8.96763636 C16.3577802,8.96763636 17.0985455,9.7084016 17.0985455,10.6221818 L17.0985455,10.6221818 Z M1.61672727,14.3378182 C1.61672727,13.685118 2.1458453,13.156 2.79854545,13.156 L35.7287273,13.156 C36.3814274,13.156 36.9105455,13.685118 36.9105455,14.3378182 L36.9105455,19.6985455 C36.9105455,20.3512456 36.3814274,20.8803636 35.7287273,20.8803636 L2.79854545,20.8803636 C2.1458453,20.8803636 1.61672727,20.3512456 1.61672727,19.6985455 L1.61672727,14.3378182 Z" id="Shape"></path>
        </g>
    </g>
</svg>