<?xml version="1.0" encoding="UTF-8" standalone="no"?>
<svg width="32px" height="26px" viewBox="0 0 32 26" version="1.1" xmlns="http://www.w3.org/2000/svg" xmlns:xlink="http://www.w3.org/1999/xlink">
    <!-- Generator: Sketch 41 (35326) - http://www.bohemiancoding.com/sketch -->
    <title>campsite</title>
    <desc>Created with Sketch.</desc>
    <defs></defs>
    <g id="Page-1" stroke="none" stroke-width="1" fill="none" fill-rule="evenodd">
        <g id="Group" transform="translate(0.382979, 0.808511)" fill="#060709">
            <path d="M30.522549,23.6142157 L16.3985294,4.57696078 L18.7632353,1.38970588 C18.9911765,1.08137255 18.9279412,0.644607843 18.6176471,0.415686275 C18.3083333,0.18627451 17.8720588,0.250980392 17.6431373,0.560294118 L15.5147059,3.42892157 L13.3872549,0.560294118 C13.1568627,0.250980392 12.7210784,0.18627451 12.4127451,0.415686275 C12.1034314,0.645588235 12.0392157,1.08137255 12.2681373,1.38970588 L14.647549,4.59803922 L0.481372549,23.6916667 C0.325490196,23.9029412 0.300490196,24.1848039 0.419117647,24.420098 C0.537745098,24.654902 0.77745098,24.8029412 1.04166667,24.8029412 L30.0308824,24.8029412 C30.4142157,24.8029412 30.7279412,24.4901961 30.7279412,24.1058824 C30.727451,23.9137255 30.6485294,23.7397059 30.522549,23.6142157 Z M9.59607843,13.745098 C9.59607843,13.745098 9.59607843,13.745098 9.59607843,13.7441176 L14.8348039,6.6872549 L14.8348039,16.3857843 L9.09264706,18.6147059 C9.08235294,18.6196078 9.07156863,18.6264706 9.06078431,18.6318627 C9.03970588,18.6416667 9.01862745,18.6514706 8.9995098,18.6627451 C8.97941176,18.675 8.96029412,18.6867647 8.94117647,18.7009804 C8.92303922,18.7127451 8.90686275,18.7269608 8.88970588,18.7421569 C8.87205882,18.7573529 8.85588235,18.7730392 8.83872549,18.7901961 C8.82352941,18.8063725 8.80980392,18.822549 8.79754902,18.8397059 C8.78333333,18.8588235 8.76960784,18.8764706 8.75735294,18.8965686 C8.74705882,18.9147059 8.73627451,18.9328431 8.72598039,18.9519608 C8.71617647,18.9720588 8.70735294,18.9931373 8.69803922,19.0142157 C8.69117647,19.0352941 8.68382353,19.0563725 8.67794118,19.077451 C8.67205882,19.0985294 8.66715686,19.1205882 8.6627451,19.1431373 C8.65882353,19.1651961 8.65686275,19.1872549 8.65392157,19.2093137 C8.65196078,19.2333333 8.65098039,19.2553922 8.65098039,19.2794118 C8.65294118,19.3014706 8.65294118,19.322549 8.65686275,19.3446078 C8.65882353,19.370098 8.66372549,19.3941176 8.66813725,19.4181373 C8.67205882,19.4284314 8.67205882,19.4401961 8.67401961,19.4504902 L9.76911765,23.4098039 L2.42696078,23.4098039 L9.59607843,13.745098 Z M14.2004902,18.1269608 L10.9607843,22.4911765 L10.1862745,19.6848039 L14.2004902,18.1269608 Z M12.0166667,23.4093137 L15.5313725,18.6720588 L19.0470588,23.4093137 L12.0166667,23.4093137 Z M16.8617647,18.1279412 L20.8754902,19.6857843 L20.1,22.4911765 L16.8617647,18.1279412 Z M21.2936275,23.4093137 L22.3862745,19.45 C22.3892157,19.4397059 22.3892157,19.4264706 22.3926471,19.4156863 C22.3995098,19.3916667 22.402451,19.3686275 22.4034314,19.3441176 C22.4073529,19.3220588 22.4093137,19.3 22.4093137,19.2779412 C22.4102941,19.2539216 22.4093137,19.2318627 22.4073529,19.2078431 C22.4044118,19.1857843 22.402451,19.1637255 22.3985294,19.1411765 C22.3946078,19.1191176 22.3882353,19.0970588 22.3833333,19.0759804 C22.3764706,19.054902 22.3715686,19.0338235 22.3622549,19.0127451 C22.3534314,18.9916667 22.345098,18.9705882 22.3352941,18.9514706 C22.325,18.9313725 22.3142157,18.9122549 22.3029412,18.8941176 C22.2921569,18.875 22.2779412,18.8573529 22.2637255,18.8392157 C22.2509804,18.8220588 22.2367647,18.804902 22.2205882,18.7882353 C22.2053922,18.7720588 22.1897059,18.7573529 22.172549,18.7421569 C22.1544118,18.7269608 22.1372549,18.7112745 22.1171569,18.6980392 C22.1,18.6857843 22.0818627,18.6740196 22.0627451,18.6627451 C22.0431373,18.6514706 22.0196078,18.6397059 21.9965686,18.6294118 C21.9867647,18.6245098 21.977451,18.6186275 21.9666667,18.6147059 L16.2269608,16.3857843 L16.2269608,6.72892157 L21.4323529,13.745098 C21.4691176,13.7960784 21.5137255,13.8377451 21.5598039,13.875 L28.6352941,23.4102941 L21.2936275,23.4093137 L21.2936275,23.4093137 Z" id="Shape"></path>
        </g>
    </g>
</svg>