<?xml version="1.0" encoding="UTF-8" standalone="no"?>
<svg width="40px" height="40px" viewBox="0 0 40 40" version="1.1" xmlns="http://www.w3.org/2000/svg" xmlns:xlink="http://www.w3.org/1999/xlink">
    <!-- Generator: Sketch 41 (35326) - http://www.bohemiancoding.com/sketch -->
    <title>campsite</title>
    <desc>Created with Sketch.</desc>
    <defs></defs>
    <g id="Page-1" stroke="none" stroke-width="1" fill="none" fill-rule="evenodd">
        <g id="Group">
            <ellipse id="Oval" fill="#FFC830" cx="19.8693617" cy="19.8714894" rx="19.7182979" ry="19.7182979"></ellipse>
            <path d="M19.8685106,39.5889362 C30.7595745,39.5889362 39.5876596,30.7617021 39.5876596,19.8714894 L0.15106383,19.8714894 C0.15106383,30.7617021 8.9787234,39.5889362 19.8685106,39.5889362 Z" id="Shape" fill="#EFB31D"></path>
        </g>
        <g id="Group" transform="translate(6.382979, 6.808511)">
            <path d="M26.4961702,20.4991489 L14.2353191,3.97319149 L16.2880851,1.20638298 C16.4859574,0.938723404 16.4310638,0.559574468 16.1617021,0.360851064 C15.8931915,0.161702128 15.5144681,0.21787234 15.3157447,0.486382979 L13.4680851,2.97659574 L11.6212766,0.486382979 C11.4212766,0.21787234 11.0429787,0.161702128 10.7753191,0.360851064 C10.5068085,0.560425532 10.4510638,0.938723404 10.6497872,1.20638298 L12.7153191,3.99148936 L0.41787234,20.566383 C0.282553191,20.7497872 0.260851064,20.9944681 0.363829787,21.1987234 C0.466808511,21.4025532 0.674893617,21.5310638 0.904255319,21.5310638 L26.0693617,21.5310638 C26.4021277,21.5310638 26.6744681,21.2595745 26.6744681,20.9259574 C26.6740426,20.7591489 26.6055319,20.6080851 26.4961702,20.4991489 Z M8.33021277,11.9319149 C8.33021277,11.9319149 8.33021277,11.9319149 8.33021277,11.9310638 L12.8778723,5.80510638 L12.8778723,14.2242553 L7.89319149,16.1591489 C7.88425532,16.1634043 7.87489362,16.1693617 7.86553191,16.1740426 C7.84723404,16.1825532 7.82893617,16.1910638 7.81234043,16.2008511 C7.79489362,16.2114894 7.77829787,16.2217021 7.76170213,16.2340426 C7.74595745,16.2442553 7.73191489,16.2565957 7.71702128,16.2697872 C7.70170213,16.2829787 7.68765957,16.2965957 7.67276596,16.3114894 C7.65957447,16.3255319 7.64765957,16.3395745 7.63702128,16.3544681 C7.62468085,16.3710638 7.61276596,16.386383 7.60212766,16.4038298 C7.59319149,16.4195745 7.58382979,16.4353191 7.57489362,16.4519149 C7.56638298,16.4693617 7.5587234,16.4876596 7.5506383,16.5059574 C7.54468085,16.5242553 7.53829787,16.5425532 7.53319149,16.5608511 C7.52808511,16.5791489 7.52382979,16.5982979 7.52,16.6178723 C7.51659574,16.6370213 7.51489362,16.6561702 7.51234043,16.6753191 C7.5106383,16.6961702 7.50978723,16.7153191 7.50978723,16.7361702 C7.51148936,16.7553191 7.51148936,16.773617 7.51489362,16.792766 C7.51659574,16.8148936 7.52085106,16.8357447 7.52468085,16.8565957 C7.52808511,16.8655319 7.52808511,16.8757447 7.52978723,16.8846809 L8.48042553,20.3217021 L2.10680851,20.3217021 L8.33021277,11.9319149 Z M12.327234,15.7357447 L9.51489362,19.5242553 L8.84255319,17.0880851 L12.327234,15.7357447 Z M10.4314894,20.3212766 L13.4825532,16.2089362 L16.5344681,20.3212766 L10.4314894,20.3212766 Z M14.6374468,15.7365957 L18.1217021,17.0889362 L17.4485106,19.5242553 L14.6374468,15.7365957 Z M18.4846809,20.3212766 L19.4331915,16.8842553 C19.4357447,16.8753191 19.4357447,16.8638298 19.4387234,16.8544681 C19.4446809,16.833617 19.447234,16.813617 19.4480851,16.7923404 C19.4514894,16.7731915 19.4531915,16.7540426 19.4531915,16.7348936 C19.4540426,16.7140426 19.4531915,16.6948936 19.4514894,16.6740426 C19.4489362,16.6548936 19.447234,16.6357447 19.4438298,16.6161702 C19.4404255,16.5970213 19.4348936,16.5778723 19.4306383,16.5595745 C19.4246809,16.5412766 19.4204255,16.5229787 19.4123404,16.5046809 C19.4046809,16.486383 19.3974468,16.4680851 19.3889362,16.4514894 C19.38,16.4340426 19.3706383,16.4174468 19.3608511,16.4017021 C19.3514894,16.3851064 19.3391489,16.3697872 19.3268085,16.3540426 C19.3157447,16.3391489 19.3034043,16.3242553 19.2893617,16.3097872 C19.2761702,16.2957447 19.2625532,16.2829787 19.2476596,16.2697872 C19.2319149,16.2565957 19.2170213,16.2429787 19.1995745,16.2314894 C19.1846809,16.2208511 19.1689362,16.2106383 19.1523404,16.2008511 C19.1353191,16.1910638 19.1148936,16.1808511 19.0948936,16.1719149 C19.086383,16.1676596 19.0782979,16.1625532 19.0689362,16.1591489 L14.086383,14.2242553 L14.086383,5.8412766 L18.6051064,11.9319149 C18.6370213,11.9761702 18.6757447,12.0123404 18.7157447,12.0446809 L24.8578723,20.3221277 L18.4846809,20.3212766 L18.4846809,20.3212766 Z" id="Shape" fill="#060709"></path>
            <path d="M7.52425532,16.8553191 C7.51957447,16.833617 7.51531915,16.812766 7.51446809,16.7923404 C7.51106383,16.7731915 7.51106383,16.7540426 7.5093617,16.7348936 C7.5093617,16.7148936 7.51021277,16.6948936 7.51191489,16.6740426 C7.51446809,16.6548936 7.51617021,16.6357447 7.51957447,16.6174468 C7.52340426,16.5978723 7.52851064,16.5787234 7.53276596,16.5595745 C7.53787234,16.5412766 7.54425532,16.5229787 7.55021277,16.5055319 C7.55829787,16.486383 7.56595745,16.4689362 7.57446809,16.4514894 C7.58340426,16.4340426 7.59276596,16.4182979 7.60170213,16.4025532 C7.61234043,16.3851064 7.62425532,16.3697872 7.63659574,16.3540426 C7.64723404,16.3391489 7.65914894,16.3251064 7.67234043,16.3102128 C7.68638298,16.2961702 7.70042553,16.2825532 7.71659574,16.2685106 C7.73148936,16.2553191 7.74553191,16.2429787 7.7612766,16.232766 C7.77787234,16.2212766 7.79446809,16.2102128 7.81191489,16.1995745 C7.82851064,16.1906383 7.84680851,16.1812766 7.86510638,16.172766 C7.87446809,16.1685106 7.88425532,16.1625532 7.89276596,16.1582979 L12.8774468,14.2229787 L12.8774468,5.80510638 L8.33021277,11.9319149 L8.33021277,11.9319149 L2.10680851,20.3212766 L8.48042553,20.3212766 L7.52978723,16.8851064 C7.52723404,16.8744681 7.52723404,16.8646809 7.52425532,16.8553191 Z" id="Shape" fill="#CDA128"></path>
            <polygon id="Shape" fill="#FFD86F" points="8.84212766 17.0889362 9.51446809 19.5255319 12.327234 15.7357447"></polygon>
            <polygon id="Shape" fill="#A87B14" points="10.4314894 20.3212766 16.5340426 20.3212766 13.4825532 16.2089362"></polygon>
            <path d="M18.606383,11.9319149 L14.087234,5.84170213 L14.087234,14.2242553 L19.0697872,16.1591489 C19.0787234,16.1634043 19.087234,16.1685106 19.0957447,16.172766 C19.1157447,16.1817021 19.1361702,16.1910638 19.1531915,16.2017021 C19.1697872,16.2114894 19.1855319,16.2217021 19.2004255,16.2323404 C19.2178723,16.2434043 19.232766,16.2565957 19.2485106,16.2697872 C19.2634043,16.2829787 19.2761702,16.2957447 19.2902128,16.3097872 C19.3042553,16.3238298 19.3165957,16.3387234 19.3276596,16.3540426 C19.34,16.3697872 19.3523404,16.3851064 19.3617021,16.4017021 C19.3714894,16.4182979 19.3808511,16.4340426 19.3897872,16.4514894 C19.3982979,16.4689362 19.4055319,16.486383 19.4131915,16.5046809 C19.4212766,16.5229787 19.4255319,16.5412766 19.4314894,16.5595745 C19.4365957,16.5787234 19.4412766,16.5978723 19.4446809,16.6174468 C19.4480851,16.6357447 19.4497872,16.6548936 19.4523404,16.6740426 C19.4540426,16.6948936 19.4548936,16.7140426 19.4540426,16.7348936 C19.4540426,16.7540426 19.4523404,16.7740426 19.4489362,16.7931915 C19.447234,16.813617 19.4446809,16.833617 19.4395745,16.8544681 C19.4365957,16.8638298 19.4365957,16.8753191 19.4340426,16.8851064 L18.4855319,20.3212766 L24.8595745,20.3212766 L18.7165957,12.0442553 C18.6770213,12.0119149 18.6387234,11.9753191 18.606383,11.9319149 Z" id="Shape" fill="#CDA128"></path>
            <polygon id="Shape" fill="#FFD86F" points="17.4485106 19.5242553 18.1217021 17.0889362 14.6374468 15.7365957"></polygon>
        </g>
    </g>
</svg>