<?xml version="1.0" encoding="UTF-8" standalone="no"?>
<svg width="23px" height="19px" viewBox="0 0 23 19" version="1.1" xmlns="http://www.w3.org/2000/svg" xmlns:xlink="http://www.w3.org/1999/xlink">
    <!-- Generator: Sketch 41 (35326) - http://www.bohemiancoding.com/sketch -->
    <title>Slice 1</title>
    <desc>Created with Sketch.</desc>
    <defs></defs>
    <g id="Page-1" stroke="none" stroke-width="1" fill="none" fill-rule="evenodd">
        <g id="Group" fill="#060709">
            <path d="M22.8830561,17.7038104 L12.2941393,3.43139265 L14.0669826,1.04187621 C14.2378723,0.810715667 14.1904642,0.483268859 13.9578337,0.311644101 C13.7259381,0.139651838 13.3988588,0.188162476 13.227234,0.420058027 L11.631528,2.57069632 L10.0365571,0.420058027 C9.86382979,0.188162476 9.53711799,0.139651838 9.30595745,0.311644101 C9.0740619,0.484003868 9.02591876,0.810715667 9.19754352,1.04187621 L10.981412,3.44719536 L0.360889749,17.7618762 C0.244023211,17.9202708 0.225280464,18.1315861 0.314216634,18.3079884 C0.403152805,18.4840232 0.582862669,18.5950097 0.780947776,18.5950097 L22.5144487,18.5950097 C22.8018375,18.5950097 23.0370406,18.3605416 23.0370406,18.0724178 C23.0366731,17.9283559 22.9775048,17.7978917 22.8830561,17.7038104 Z M7.19427466,10.3048356 C7.19427466,10.3048356 7.19427466,10.3048356 7.19427466,10.3041006 L11.1217988,5.01350097 L11.1217988,12.2845841 L6.8168472,13.9556286 C6.80912959,13.9593037 6.80104449,13.9644487 6.79295938,13.9684913 C6.77715667,13.9758414 6.76135397,13.9831915 6.74702128,13.9916441 C6.73195358,14.0008317 6.71762089,14.0096518 6.7032882,14.0203095 C6.68969052,14.0291296 6.67756286,14.0397872 6.66470019,14.0511799 C6.65147002,14.0625725 6.63934236,14.0743327 6.62647969,14.0871954 C6.61508704,14.099323 6.60479691,14.1114507 6.59560928,14.1243133 C6.58495164,14.138646 6.57466151,14.1518762 6.56547389,14.1669439 C6.55775629,14.1805416 6.54967118,14.1941393 6.54195358,14.208472 C6.53460348,14.2235397 6.52798839,14.2393424 6.5210058,14.2551451 C6.51586074,14.2709478 6.51034816,14.2867505 6.5059381,14.3025532 C6.50152805,14.3183559 6.497853,14.3348936 6.49454545,14.3517988 C6.49160542,14.3683366 6.4901354,14.3848743 6.48793037,14.401412 C6.48646035,14.4194197 6.48572534,14.4359574 6.48572534,14.4539652 C6.48719536,14.4705029 6.48719536,14.4863056 6.4901354,14.5028433 C6.49160542,14.5219536 6.49528046,14.5399613 6.49858801,14.5579691 C6.50152805,14.5656867 6.50152805,14.5745068 6.50299807,14.5822244 L7.32400387,17.5505609 L1.81951644,17.5505609 L7.19427466,10.3048356 Z M10.6462476,13.5899613 L8.21740812,16.8618569 L7.63675048,14.7578917 L10.6462476,13.5899613 Z M9.00901354,17.5501934 L11.6440232,13.9986267 L14.2797679,17.5501934 L9.00901354,17.5501934 Z M12.6414313,13.5906963 L15.6505609,14.7586267 L15.0691683,16.8618569 L12.6414313,13.5906963 Z M15.9640426,17.5501934 L16.7832108,14.5818569 C16.7854159,14.5741393 16.7854159,14.5642166 16.7879884,14.5561315 C16.7931335,14.5381238 16.7953385,14.5208511 16.7960735,14.5024758 C16.7990135,14.4859381 16.8004836,14.4694004 16.8004836,14.4528627 C16.8012186,14.4348549 16.8004836,14.4183172 16.7990135,14.4003095 C16.7968085,14.3837718 16.7953385,14.367234 16.7923985,14.3503288 C16.7894584,14.3337911 16.7846809,14.3172534 16.7810058,14.3014507 C16.7758607,14.285648 16.7721857,14.2698453 16.7652031,14.2540426 C16.758588,14.2382398 16.7523404,14.2224371 16.7449903,14.2081044 C16.7372727,14.1930368 16.7291876,14.1787041 16.720735,14.1651064 C16.7126499,14.1507737 16.7019923,14.1375435 16.6913346,14.1239458 C16.6817795,14.1110832 16.6711219,14.0982205 16.6589942,14.0857253 C16.6476015,14.0735977 16.6358414,14.0625725 16.6229787,14.0511799 C16.609381,14.0397872 16.5965184,14.0280271 16.5814507,14.0181044 C16.568588,14.0089168 16.5549903,14.0000967 16.5406576,13.9916441 C16.5259574,13.9831915 16.5083172,13.9743714 16.4910445,13.9666538 C16.4836944,13.9629787 16.4767118,13.9585687 16.4686267,13.9556286 L12.1655126,12.2845841 L12.1655126,5.04473888 L16.0680464,10.3048356 C16.0956093,10.3430561 16.1290522,10.374294 16.1635977,10.4022244 L21.4681625,17.5509284 L15.9640426,17.5501934 L15.9640426,17.5501934 Z" id="Shape"></path>
        </g>
    </g>
</svg>