<?xml version="1.0" encoding="UTF-8" standalone="no"?>
<svg width="27px" height="22px" viewBox="0 0 27 22" version="1.1" xmlns="http://www.w3.org/2000/svg" xmlns:xlink="http://www.w3.org/1999/xlink">
    <!-- Generator: Sketch 41 (35326) - http://www.bohemiancoding.com/sketch -->
    <title>campsite</title>
    <desc>Created with Sketch.</desc>
    <defs></defs>
    <g id="Page-1" stroke="none" stroke-width="1" fill="none" fill-rule="evenodd">
        <path d="M26.1969325,20.2574839 L13.9360814,3.73152647 L15.9888473,0.964717957 C16.1867197,0.697058383 16.1318261,0.317909446 15.8624644,0.119186042 C15.5939537,-0.0799628941 15.2152303,-0.0237926813 15.0165069,0.244717957 L13.1688473,2.73493072 L11.3220388,0.244717957 C11.1220388,-0.0237926813 10.743741,-0.0799628941 10.4760814,0.119186042 C10.2075708,0.31876051 10.1518261,0.697058383 10.3505495,0.964717957 L12.4160814,3.74982434 L0.118634581,20.324718 C-0.0166845675,20.5081222 -0.0383866952,20.7528031 0.0645920282,20.9570584 C0.167570752,21.1608882 0.375655858,21.2893988 0.60501756,21.2893988 L25.7701239,21.2893988 C26.1028899,21.2893988 26.3752303,21.0179094 26.3752303,20.6842924 C26.3748048,20.5174839 26.3062942,20.3664201 26.1969325,20.2574839 Z M8.03097501,11.6902499 C8.03097501,11.6902499 8.03097501,11.6902499 8.03097501,11.6893988 L12.5786346,5.56344136 L12.5786346,13.9825903 L7.59395373,15.9174839 C7.58501756,15.9217392 7.57565586,15.9276967 7.56629416,15.9323775 C7.54799628,15.9408882 7.52969841,15.9493988 7.51310267,15.959186 C7.49565586,15.9698243 7.47906011,15.9800371 7.46246437,15.9923775 C7.44671969,16.0025903 7.43267713,16.0149307 7.41778352,16.0281222 C7.40246437,16.0413137 7.38842182,16.0549307 7.3735282,16.0698243 C7.36033671,16.0838669 7.34842182,16.0979094 7.33778352,16.1128031 C7.32544309,16.1293988 7.3135282,16.144718 7.3028899,16.1621648 C7.29395373,16.1779094 7.28459203,16.1936541 7.27565586,16.2102499 C7.26714522,16.2276967 7.25948565,16.2459946 7.25140054,16.2642924 C7.24544309,16.2825903 7.23906011,16.3008882 7.23395373,16.319186 C7.22884735,16.3374839 7.22459203,16.3566329 7.22076224,16.3762073 C7.21735799,16.3953563 7.21565586,16.4145052 7.21310267,16.4336541 C7.21140054,16.4545052 7.21054948,16.4736541 7.21054948,16.4945052 C7.2122516,16.5136541 7.2122516,16.531952 7.21565586,16.5511009 C7.21735799,16.5732286 7.2216133,16.5940797 7.22544309,16.6149307 C7.22884735,16.6238669 7.22884735,16.6340797 7.23054948,16.6430158 L8.18118777,20.0800371 L1.80757075,20.0800371 L8.03097501,11.6902499 Z M12.0279963,15.4940797 L9.21565586,19.2825903 L8.54331543,16.8464201 L12.0279963,15.4940797 Z M10.1322516,20.0796116 L13.1833154,15.9672711 L16.2352303,20.0796116 L10.1322516,20.0796116 Z M14.338209,15.4949307 L17.8224644,16.8472711 L17.1492729,19.2825903 L14.338209,15.4949307 Z M18.1854431,20.0796116 L19.1339537,16.6425903 C19.1365069,16.6336541 19.1365069,16.6221648 19.1394856,16.6128031 C19.1454431,16.591952 19.1479963,16.571952 19.1488473,16.5506754 C19.1522516,16.5315265 19.1539537,16.5123775 19.1539537,16.4932286 C19.1548048,16.4723775 19.1539537,16.4532286 19.1522516,16.4323775 C19.1496984,16.4132286 19.1479963,16.3940797 19.144592,16.3745052 C19.1411878,16.3553563 19.1356559,16.3362073 19.1314005,16.3179094 C19.1254431,16.2996116 19.1211878,16.2813137 19.1131027,16.2630158 C19.1054431,16.244718 19.098209,16.2264201 19.0896984,16.2098243 C19.0807622,16.1923775 19.0714005,16.1757818 19.0616133,16.1600371 C19.0522516,16.1434414 19.0399112,16.1281222 19.0275708,16.1123775 C19.0165069,16.0974839 19.0041665,16.0825903 18.9901239,16.0681222 C18.9769325,16.0540797 18.9633154,16.0413137 18.9484218,16.0281222 C18.9326771,16.0149307 18.9177835,16.0013137 18.9003367,15.9898243 C18.8854431,15.979186 18.8696984,15.9689733 18.8531027,15.959186 C18.8360814,15.9493988 18.8156559,15.939186 18.7956559,15.9302499 C18.7871452,15.9259946 18.7790601,15.9208882 18.7696984,15.9174839 L13.7871452,13.9825903 L13.7871452,5.59961157 L18.3058686,11.6902499 C18.3377835,11.7345052 18.3765069,11.7706754 18.4165069,11.8030158 L24.5586346,20.0804626 L18.1854431,20.0796116 L18.1854431,20.0796116 Z" id="Shape" fill="#060709"></path>
    </g>
</svg>