<?xml version="1.0" encoding="UTF-8" standalone="no"?>
<svg width="40px" height="40px" viewBox="0 0 40 40" version="1.1" xmlns="http://www.w3.org/2000/svg" xmlns:xlink="http://www.w3.org/1999/xlink">
    <!-- Generator: Sketch 41 (35326) - http://www.bohemiancoding.com/sketch -->
    <title>Slice 1</title>
    <desc>Created with Sketch.</desc>
    <defs></defs>
    <g id="Page-1" stroke="none" stroke-width="1" fill="none" fill-rule="evenodd">
        <g id="Group-2">
            <g id="1479017337_17_-_thermos">
                <g id="Group">
                    <ellipse id="Oval" fill="#FFC830" cx="19.8548936" cy="19.8697872" rx="19.7182979" ry="19.7182979"></ellipse>
                    <path d="M19.8540426,39.587234 C30.7451064,39.587234 39.5731915,30.7604255 39.5731915,19.8697872 L0.136595745,19.8697872 C0.136595745,30.76 8.96382979,39.587234 19.8540426,39.587234 Z" id="Shape" fill="#EFB31D"></path>
                </g>
                <g id="Group" transform="translate(8.510638, 6.382979)">
                    <path d="M7.63574468,23.1808511 L17.5561702,23.1808511 L17.5561702,8.52723404 L7.63574468,8.52723404 L7.63574468,23.1808511 Z M8.95829787,10.3804255 C8.95829787,10.0280851 9.24425532,9.74212766 9.59659574,9.74212766 C9.94851064,9.74212766 10.2348936,10.0280851 10.2348936,10.3804255 L10.2348936,21.3276596 C10.2348936,21.6795745 9.94851064,21.9659574 9.59659574,21.9659574 C9.24425532,21.9659574 8.95829787,21.6795745 8.95829787,21.3276596 L8.95829787,10.3804255 Z" id="Shape" fill="#A87B14"></path>
                    <rect id="Rectangle-path" fill="#FFD86F" x="7.63574468" y="24.4574468" width="9.92042553" height="1.05659574"></rect>
                    <path d="M15.372766,1.45957447 L9.81914894,1.45957447 C8.84765957,2.35829787 7.90170213,3.45787234 7.68297872,4.91787234 L17.5093617,4.91787234 C17.2910638,3.45787234 16.3442553,2.35829787 15.372766,1.45957447 Z" id="Shape" fill="#CDA128"></path>
                    <rect id="Rectangle-path" fill="#FFD86F" x="7.63574468" y="6.19446809" width="9.92042553" height="1.05617021"></rect>
                    <polygon id="Shape" fill="#CDA128" points="2.88340426 25.5140426 6.35914894 25.5140426 6.35914894 18.3280851 1.5306383 18.3280851"></polygon>
                    <path d="M3.88085106,14.4587234 C4.14085106,14.7191489 4.14085106,15.1425532 3.88085106,15.4034043 C3.63148936,15.6531915 3.63148936,16.0565957 3.88085106,16.3059574 C4.00553191,16.4306383 4.16851064,16.492766 4.33276596,16.492766 C4.49574468,16.492766 4.65957447,16.4306383 4.78425532,16.3059574 C5.5412766,15.5489362 5.54212766,14.3165957 4.78595745,13.5578723 C4.78510638,13.5570213 4.78510638,13.5561702 4.78425532,13.5553191 C4.65787234,13.4289362 4.58808511,13.2612766 4.58808511,13.0825532 C4.58808511,12.9038298 4.65702128,12.7365957 4.78340426,12.6106383 C5.03361702,12.3617021 5.03361702,11.9574468 4.78425532,11.7080851 C4.53574468,11.4582979 4.13191489,11.4582979 3.88170213,11.707234 C3.51361702,12.0744681 3.31148936,12.5634043 3.31148936,13.0829787 C3.31148936,13.6025532 3.51446809,14.0902128 3.88085106,14.4578723 L3.88085106,14.4587234 Z M1.21531915,14.4587234 C1.47489362,14.7191489 1.47489362,15.1425532 1.21531915,15.4034043 C0.965957447,15.6531915 0.965957447,16.0565957 1.21531915,16.3059574 C1.34,16.4306383 1.50297872,16.492766 1.66680851,16.492766 C1.82978723,16.492766 1.99404255,16.4306383 2.1187234,16.3059574 C2.87531915,15.5489362 2.87617021,14.3165957 2.12042553,13.5578723 C2.11957447,13.5570213 2.11957447,13.5561702 2.1187234,13.5553191 C1.99234043,13.4289362 1.92255319,13.2612766 1.92255319,13.0825532 C1.92255319,12.9038298 1.99148936,12.7365957 2.11787234,12.6106383 C2.36808511,12.3617021 2.36808511,11.9574468 2.1187234,11.7080851 C1.87021277,11.4582979 1.46638298,11.4582979 1.21617021,11.707234 C0.848085106,12.0744681 0.645957447,12.5634043 0.645957447,13.0829787 C0.645957447,13.6025532 0.84893617,14.0902128 1.21531915,14.4578723 L1.21531915,14.4587234 Z M19.6604255,4.91787234 L18.792766,4.91787234 C18.5574468,2.86468085 17.2251064,1.40680851 16.0468085,0.346808511 C15.9302128,0.241276596 15.7774468,0.182978723 15.6204255,0.182978723 L9.57234043,0.182978723 C9.41446809,0.182978723 9.26212766,0.241276596 9.14510638,0.346808511 C7.84765957,1.51404255 6.35914894,3.16042553 6.35914894,5.55617021 L6.35914894,17.0519149 L0.760851064,17.0519149 C0.570638298,17.0519149 0.390212766,17.1365957 0.269787234,17.2825532 C0.14893617,17.4293617 0.0991489362,17.6221277 0.134042553,17.8080851 L1.72723404,26.2706383 C1.78382979,26.5723404 2.04723404,26.7914894 2.35489362,26.7914894 L18.1957447,26.7914894 C18.5480851,26.7914894 18.8340426,26.5055319 18.8340426,26.1531915 L18.8340426,17.6595745 L19.6608511,17.6595745 C21.2625532,17.6595745 22.566383,16.3561702 22.566383,14.7544681 L22.566383,7.82340426 C22.5659574,6.2212766 21.2621277,4.91787234 19.6604255,4.91787234 Z M6.35914894,25.5140426 L2.88340426,25.5140426 L1.95191489,20.567234 L4.2306383,20.567234 C4.58297872,20.567234 4.86893617,20.2812766 4.86893617,19.9289362 C4.86893617,19.5765957 4.58297872,19.2906383 4.2306383,19.2906383 L1.71148936,19.2906383 L1.53021277,18.3276596 L6.35914894,18.3276596 L6.35914894,25.5140426 Z M9.81914894,1.45957447 L15.372766,1.45957447 C16.3442553,2.35829787 17.2910638,3.45787234 17.5093617,4.91787234 L7.68340426,4.91787234 C7.90170213,3.45787234 8.84765957,2.35829787 9.81914894,1.45957447 Z M17.5570213,25.5140426 L7.63574468,25.5140426 L7.63574468,24.4574468 L17.5561702,24.4574468 L17.5570213,25.5140426 L17.5570213,25.5140426 Z M17.5570213,23.1808511 L7.63574468,23.1808511 L7.63574468,8.52723404 L17.5561702,8.52723404 L17.5570213,23.1808511 L17.5570213,23.1808511 Z M17.5570213,7.2506383 L7.63574468,7.2506383 L7.63574468,6.19446809 L17.5561702,6.19446809 L17.5570213,7.2506383 L17.5570213,7.2506383 Z M21.2893617,14.753617 C21.2893617,15.6510638 20.5578723,16.3821277 19.6604255,16.3821277 L18.833617,16.3821277 L18.833617,6.19446809 L19.6604255,6.19446809 C20.5578723,6.19446809 21.2893617,6.92553191 21.2893617,7.82340426 L21.2893617,14.753617 Z M9.59659574,21.9659574 C9.94851064,21.9659574 10.2348936,21.6795745 10.2348936,21.3276596 L10.2348936,10.3804255 C10.2348936,10.0280851 9.94851064,9.74212766 9.59659574,9.74212766 C9.24425532,9.74212766 8.95829787,10.0280851 8.95829787,10.3804255 L8.95829787,21.3276596 C8.95829787,21.68 9.24425532,21.9659574 9.59659574,21.9659574 Z" id="Shape" fill="#000000"></path>
                </g>
            </g>
        </g>
    </g>
</svg>