<?xml version="1.0" encoding="UTF-8" standalone="no"?>
<svg width="17px" height="19px" viewBox="0 0 17 19" version="1.1" xmlns="http://www.w3.org/2000/svg" xmlns:xlink="http://www.w3.org/1999/xlink">
    <!-- Generator: Sketch 41 (35326) - http://www.bohemiancoding.com/sketch -->
    <title>Slice 1</title>
    <desc>Created with Sketch.</desc>
    <defs></defs>
    <g id="Page-1" stroke="none" stroke-width="1" fill="none" fill-rule="evenodd">
        <g id="Group">
            <path d="M6.30398739,7.30474389 C6.30398739,7.05680063 6.50521671,6.85557132 6.75315997,6.85557132 C7.00080378,6.85557132 7.20233255,7.05680063 7.20233255,7.30474389 L7.20233255,15.008353 C7.20233255,15.2559968 7.00080378,15.4575256 6.75315997,15.4575256 C6.50521671,15.4575256 6.30398739,15.2559968 6.30398739,15.008353 L6.30398739,7.30474389 Z" id="Shape" fill="#A87B14"></path>
            <rect id="Rectangle-path" fill="#FFFFFF" x="5.37330181" y="17.2107959" width="6.98104019" height="0.743530339"></rect>
            <path d="M2.73096927,10.1746572 C2.91393223,10.3579196 2.91393223,10.6558708 2.73096927,10.8394326 C2.55549251,11.0152088 2.55549251,11.2990859 2.73096927,11.4745626 C2.81870764,11.562301 2.93339638,11.6060205 3.04898345,11.6060205 C3.16367218,11.6060205 3.27895981,11.562301 3.36669819,11.4745626 C3.89941686,10.941844 3.90001576,10.0746414 3.36789598,9.54072498 C3.36729708,9.54012608 3.36729708,9.53952719 3.36669819,9.53892829 C3.27776202,9.44999212 3.22865248,9.33200946 3.22865248,9.20624113 C3.22865248,9.08047281 3.27716312,8.9627896 3.36609929,8.87415288 C3.54217494,8.69897557 3.54217494,8.41449961 3.36669819,8.23902285 C3.19182033,8.06324665 2.90764381,8.06324665 2.73156816,8.23842396 C2.47254531,8.49684791 2.33030733,8.84091411 2.33030733,9.20654058 C2.33030733,9.57216706 2.47314421,9.91533491 2.73096927,10.1740583 L2.73096927,10.1746572 Z M0.855224586,10.1746572 C1.0378881,10.3579196 1.0378881,10.6558708 0.855224586,10.8394326 C0.679747833,11.0152088 0.679747833,11.2990859 0.855224586,11.4745626 C0.942962963,11.562301 1.05765169,11.6060205 1.17293932,11.6060205 C1.28762805,11.6060205 1.40321513,11.562301 1.49095351,11.4745626 C2.02337273,10.941844 2.02397163,10.0746414 1.4921513,9.54072498 C1.4915524,9.54012608 1.4915524,9.53952719 1.49095351,9.53892829 C1.40201734,9.44999212 1.3529078,9.33200946 1.3529078,9.20624113 C1.3529078,9.08047281 1.40141844,8.9627896 1.49035461,8.87415288 C1.66643026,8.69897557 1.66643026,8.41449961 1.49095351,8.23902285 C1.31607565,8.06324665 1.03189913,8.06324665 0.855823483,8.23842396 C0.59680063,8.49684791 0.454562648,8.84091411 0.454562648,9.20654058 C0.454562648,9.57216706 0.597399527,9.91533491 0.855224586,10.1740583 L0.855224586,10.1746572 Z M13.8351143,3.46072498 L13.224539,3.46072498 C13.0589441,2.01588652 12.1213712,0.989976359 11.2921986,0.244050433 C11.2101497,0.169787234 11.1026478,0.128762805 10.9921513,0.128762805 L6.73609141,0.128762805 C6.62499606,0.128762805 6.51779354,0.169787234 6.43544523,0.244050433 C5.52242711,1.06543735 4.47495666,2.22400315 4.47495666,3.90989756 L4.47495666,11.9994957 L0.535413712,11.9994957 C0.401560284,11.9994957 0.274594169,12.0590859 0.189850276,12.1617967 C0.104806935,12.2651064 0.0697714736,12.4007565 0.0943262411,12.5316154 L1.21546099,18.4867455 C1.25528763,18.6990544 1.44064618,18.8532703 1.65714736,18.8532703 L12.8044129,18.8532703 C13.0523562,18.8532703 13.2535855,18.652041 13.2535855,18.4040977 L13.2535855,12.427108 L13.8354137,12.427108 C14.9625374,12.427108 15.8800473,11.5098976 15.8800473,10.3827738 L15.8800473,5.50535855 C15.8797478,4.37793538 14.962238,3.46072498 13.8351143,3.46072498 Z M4.47495666,17.9543262 L2.02906225,17.9543262 L1.37356974,14.4732388 L2.97711584,14.4732388 C3.2250591,14.4732388 3.42628842,14.2720095 3.42628842,14.0240662 C3.42628842,13.7761229 3.2250591,13.5748936 2.97711584,13.5748936 L1.2043814,13.5748936 L1.07681639,12.8972419 L4.47495666,12.8972419 L4.47495666,17.9543262 Z M6.90977147,1.02710796 L10.8178723,1.02710796 C11.501513,1.65954295 12.1677857,2.43331757 12.3214027,3.46072498 L5.40684003,3.46072498 C5.56045705,2.43331757 6.22613081,1.65954295 6.90977147,1.02710796 Z M12.3549409,17.9543262 L5.37330181,17.9543262 L5.37330181,17.2107959 L12.354342,17.2107959 L12.3549409,17.9543262 L12.3549409,17.9543262 Z M12.3549409,16.3124507 L5.37330181,16.3124507 L5.37330181,6.00064618 L12.354342,6.00064618 L12.3549409,16.3124507 L12.3549409,16.3124507 Z M12.3549409,5.10230102 L5.37330181,5.10230102 L5.37330181,4.35907013 L12.354342,4.35907013 L12.3549409,5.10230102 L12.3549409,5.10230102 Z M14.9814027,10.3821749 C14.9814027,11.0137116 14.4666509,11.5281639 13.8351143,11.5281639 L13.2532861,11.5281639 L13.2532861,4.35907013 L13.8351143,4.35907013 C14.4666509,4.35907013 14.9814027,4.87352246 14.9814027,5.50535855 L14.9814027,10.3821749 Z M6.75315997,15.4575256 C7.00080378,15.4575256 7.20233255,15.2559968 7.20233255,15.008353 L7.20233255,7.30474389 C7.20233255,7.05680063 7.00080378,6.85557132 6.75315997,6.85557132 C6.50521671,6.85557132 6.30398739,7.05680063 6.30398739,7.30474389 L6.30398739,15.008353 C6.30398739,15.2562963 6.50521671,15.4575256 6.75315997,15.4575256 Z" id="Shape" fill="#000000"></path>
        </g>
    </g>
</svg>