<?xml version="1.0" encoding="UTF-8" standalone="no"?>
<svg width="23px" height="26px" viewBox="0 0 23 26" version="1.1" xmlns="http://www.w3.org/2000/svg" xmlns:xlink="http://www.w3.org/1999/xlink">
    <!-- Generator: Sketch 41 (35326) - http://www.bohemiancoding.com/sketch -->
    <title>Slice 1</title>
    <desc>Created with Sketch.</desc>
    <defs></defs>
    <g id="Page-1" stroke="none" stroke-width="1" fill="none" fill-rule="evenodd">
        <g id="Group">
            <path d="M8.62650906,9.99596533 C8.62650906,9.65667455 8.90187549,9.38130812 9.24116627,9.38130812 C9.58004728,9.38130812 9.85582348,9.65667455 9.85582348,9.99596533 L9.85582348,20.5377463 C9.85582348,20.8766273 9.58004728,21.1524035 9.24116627,21.1524035 C8.90187549,21.1524035 8.62650906,20.8766273 8.62650906,20.5377463 L8.62650906,9.99596533 Z" id="Shape" fill="#A87B14"></path>
            <rect id="Rectangle-path" fill="#FFFFFF" x="7.35293932" y="23.5516154" width="9.55300236" height="1.01746257"></rect>
            <path d="M3.73711584,13.9232151 C3.98748621,14.1739953 3.98748621,14.5817179 3.73711584,14.8329078 C3.49698976,15.0734437 3.49698976,15.461907 3.73711584,15.7020331 C3.85717888,15.8220961 4.01412136,15.8819228 4.17229314,15.8819228 C4.32923562,15.8819228 4.48699764,15.8220961 4.60706068,15.7020331 C5.33604413,14.9730496 5.33686367,13.7863515 4.60869976,13.0557289 C4.60788022,13.0549094 4.60788022,13.0540898 4.60706068,13.0532703 C4.48535855,12.9315682 4.41815603,12.7701182 4.41815603,12.5980142 C4.41815603,12.4259102 4.48453901,12.26487 4.60624113,12.1435776 C4.84718676,11.9038613 4.84718676,11.5145784 4.60706068,11.2744523 C4.36775414,11.0339165 3.97888101,11.0339165 3.73793538,11.2736328 C3.38348306,11.6272656 3.18884161,12.098093 3.18884161,12.598424 C3.18884161,13.0987549 3.3843026,13.568353 3.73711584,13.9223956 L3.73711584,13.9232151 Z M1.17030733,13.9232151 C1.42026793,14.1739953 1.42026793,14.5817179 1.17030733,14.8329078 C0.930181245,15.0734437 0.930181245,15.461907 1.17030733,15.7020331 C1.29037037,15.8220961 1.44731284,15.8819228 1.60507486,15.8819228 C1.76201734,15.8819228 1.92018913,15.8220961 2.04025217,15.7020331 C2.76882585,14.9730496 2.76964539,13.7863515 2.04189125,13.0557289 C2.04107171,13.0549094 2.04107171,13.0540898 2.04025217,13.0532703 C1.91855004,12.9315682 1.85134752,12.7701182 1.85134752,12.5980142 C1.85134752,12.4259102 1.9177305,12.26487 2.03943262,12.1435776 C2.28037825,11.9038613 2.28037825,11.5145784 2.04025217,11.2744523 C1.80094563,11.0339165 1.4120725,11.0339165 1.17112687,11.2736328 C0.816674547,11.6272656 0.622033097,12.098093 0.622033097,12.598424 C0.622033097,13.0987549 0.81749409,13.568353 1.17030733,13.9223956 L1.17030733,13.9232151 Z M18.9322616,4.73572892 L18.0967376,4.73572892 C17.870134,2.75858156 16.5871395,1.35470449 15.4524823,0.333963751 C15.3402049,0.232340426 15.1930969,0.176201734 15.0418913,0.176201734 L9.2178093,0.176201734 C9.06578408,0.176201734 8.91908589,0.232340426 8.80639874,0.333963751 C7.55700552,1.4579669 6.1236249,3.04337273 6.1236249,5.35038613 L6.1236249,16.4203625 L0.732671395,16.4203625 C0.549503546,16.4203625 0.375760441,16.501907 0.259795114,16.6424586 C0.143420016,16.7838298 0.0954767533,16.9694563 0.129078014,17.1485264 L1.66326241,25.2976517 C1.71776202,25.5881797 1.97141056,25.799212 2.26767533,25.799212 L17.5218282,25.799212 C17.861119,25.799212 18.1364854,25.5238455 18.1364854,25.1845548 L18.1364854,17.0055162 L18.9326714,17.0055162 C20.4750512,17.0055162 21.730591,15.7503861 21.730591,14.2080063 L21.730591,7.53364854 C21.7301812,5.99085894 20.4746414,4.73572892 18.9322616,4.73572892 Z M6.1236249,24.569078 L2.77661151,24.569078 L1.87962175,19.8054846 L4.07394799,19.8054846 C4.41323877,19.8054846 4.6886052,19.5301182 4.6886052,19.1908274 C4.6886052,18.8515366 4.41323877,18.5761702 4.07394799,18.5761702 L1.64810087,18.5761702 L1.47353822,17.6488574 L6.1236249,17.6488574 L6.1236249,24.569078 Z M9.45547675,1.40551615 L14.8034043,1.40551615 C15.7389125,2.27095351 16.6506541,3.32980299 16.8608668,4.73572892 L7.39883373,4.73572892 C7.60904649,3.32980299 8.51996848,2.27095351 9.45547675,1.40551615 Z M16.9067612,24.569078 L7.35293932,24.569078 L7.35293932,23.5516154 L16.9059417,23.5516154 L16.9067612,24.569078 L16.9067612,24.569078 Z M16.9067612,22.322301 L7.35293932,22.322301 L7.35293932,8.21141056 L16.9059417,8.21141056 L16.9067612,22.322301 L16.9067612,22.322301 Z M16.9067612,6.98209614 L7.35293932,6.98209614 L7.35293932,5.96504334 L16.9059417,5.96504334 L16.9067612,6.98209614 L16.9067612,6.98209614 Z M20.5008668,14.2071868 C20.5008668,15.0713948 19.7964697,15.7753822 18.9322616,15.7753822 L18.1360757,15.7753822 L18.1360757,5.96504334 L18.9322616,5.96504334 C19.7964697,5.96504334 20.5008668,6.66903073 20.5008668,7.53364854 L20.5008668,14.2071868 Z M9.24116627,21.1524035 C9.58004728,21.1524035 9.85582348,20.8766273 9.85582348,20.5377463 L9.85582348,9.99596533 C9.85582348,9.65667455 9.58004728,9.38130812 9.24116627,9.38130812 C8.90187549,9.38130812 8.62650906,9.65667455 8.62650906,9.99596533 L8.62650906,20.5377463 C8.62650906,20.877037 8.90187549,21.1524035 9.24116627,21.1524035 Z" id="Shape" fill="#000000"></path>
        </g>
    </g>
</svg>