<?xml version="1.0" encoding="UTF-8" standalone="no"?>
<svg width="40px" height="40px" viewBox="0 0 40 40" version="1.1" xmlns="http://www.w3.org/2000/svg" xmlns:xlink="http://www.w3.org/1999/xlink">
    <!-- Generator: Sketch 41 (35326) - http://www.bohemiancoding.com/sketch -->
    <title>Group 5</title>
    <desc>Created with Sketch.</desc>
    <defs></defs>
    <g id="Page-1" stroke="none" stroke-width="1" fill="none" fill-rule="evenodd">
        <g id="Group-5">
            <g id="Group-3">
                <g id="background" transform="translate(0.000000, 0.409697)">
                    <ellipse id="Oval" fill="#FFC830" cx="19.9910865" cy="19.6331564" rx="19.8535538" ry="19.4834711"></ellipse>
                    <path d="M19.9902296,39.1157865 C30.9559997,39.1157865 39.8446403,30.3940972 39.8446403,19.6331564 L0.137532711,19.6331564 C0.137532711,30.3936767 9.02531639,39.1157865 19.9902296,39.1157865 Z" id="Shape" fill="#EFB31D"></path>
                </g>
                <g id="Group-2" transform="translate(5.141410, 10.500838)">
                    <rect id="Rectangle-path" fill="#FFD86F" x="0.428450814" y="6.30696333" width="29.0061201" height="2.01150084"></rect>
                    <rect id="Rectangle-path" fill="#FFD86F" x="0.428450814" y="7.56835599" width="29.0061201" height="2.01150084"></rect>
                    <rect id="Rectangle-path" fill="#FFD86F" x="6.10456719" y="7.98882021" width="3.32135071" height="2.01150084"></rect>
                    <path d="M27.395145,5.29953105 C27.395145,2.39832792 24.9906791,0 22.0343684,0 L7.5287377,0 C4.57242708,0 2.16796112,2.39832792 2.16796112,5.29953105 L2.16796112,6.61474314 L27.395145,6.61474314 L27.395145,5.29953105 Z" id="Shape" fill="#0D0A0A"></path>
                    <g id="Group" transform="translate(0.000000, 7.568356)" fill="#000000">
                        <path d="M28.414858,1.98627298 L10.401072,1.98627298 L11.150004,1.25130152 L29.5579647,1.25130152 C29.8733045,1.25130152 30.1492269,0.980522565 30.1492269,0.671060898 C30.1492269,0.361599231 29.8733045,0.0908202719 29.5579647,0.0908202719 L10.9134991,0.0908202719 C10.7558292,0.0908202719 10.5981593,0.168185689 10.4799069,0.245551105 L8.15427588,2.5278309 L5.82864487,0.245551105 C5.71039244,0.12950298 5.55272254,0.0908202719 5.39505265,0.0908202719 L0.862043037,0.0908202719 C0.546703238,0.0908202719 0.270780914,0.361599231 0.270780914,0.671060898 C0.270780914,0.980522565 0.546703238,1.25130152 0.862043037,1.25130152 L5.19796527,1.25130152 L5.94689729,1.98627298 L2.00514981,1.98627298 C1.05913041,1.98627298 0.270780914,2.75992715 0.270780914,3.68831215 L0.270780914,4.61669715 C0.270780914,5.54508216 1.05913041,6.31873632 2.00514981,6.31873632 L2.59641193,6.31873632 L2.59641193,6.47346716 C2.59641193,9.37467029 5.0008779,11.7729982 7.95718851,11.7729982 L22.4234018,11.7729982 C25.4191299,11.7729982 27.8235958,9.37467029 27.8235958,6.47346716 L27.8235958,6.31873632 L28.414858,6.31873632 C29.3608774,6.31873632 30.1492269,5.54508216 30.1492269,4.61669715 L30.1492269,3.68831215 C30.1492269,2.72124444 29.4002948,1.98627298 28.414858,1.98627298 Z" id="Shape"></path>
                    </g>
                    <path d="M26.2126208,5.45426188 L24.5965043,5.45426188 C24.320582,3.6748573 22.743883,2.2822798 20.8124267,2.2822798 C20.5759219,2.2822798 20.418252,2.43701063 20.418252,2.66910688 C20.418252,2.90120313 20.5759219,3.05593396 20.8124267,3.05593396 C22.2708733,3.05593396 23.492815,4.10036709 23.7687373,5.45426188 L3.35048536,5.45426188 L3.35048536,5.29953105 C3.35048536,3.01725126 5.24252416,1.16048125 7.5287377,1.16048125 L21.994951,1.16048125 C24.320582,1.16048125 26.2126208,3.01725126 26.2126208,5.29953105 L26.2126208,5.45426188 Z" id="Path" fill="#CDA128"></path>
                    <path d="M26.2897419,14.0300502 C26.2897419,16.3123299 24.3977031,18.1690999 22.1114896,18.1690999 L7.60585884,18.1690999 C5.3196453,18.1690999 3.42760651,16.3123299 3.42760651,14.0300502 L3.42760651,13.8753193 L23.885276,13.8753193 C23.6093536,15.2292141 22.3874119,16.2736472 20.9289653,16.2736472 L8.00003359,16.2736472 C7.76352874,16.2736472 7.60585884,16.4283781 7.60585884,16.6604743 C7.60585884,16.8925706 7.76352874,17.0473014 8.00003359,17.0473014 L20.8895479,17.0473014 C22.7815867,17.0473014 24.3582857,15.6547239 24.6736255,13.8753193 L26.2897419,13.8753193 L26.2897419,14.0300502 Z" id="Path" fill="#CDA128"></path>
                    <path d="M28.9667026,12.1850531 C28.9667026,12.4945148 28.7301978,12.7266111 28.414858,12.7266111 L27.8235958,12.7266111 L2.59641193,12.7266111 L2.00514981,12.7266111 C1.68981001,12.7266111 1.45330516,12.4945148 1.45330516,12.1850531 L1.45330516,11.2566681 C1.45330516,10.9472065 1.68981001,10.7151102 2.00514981,10.7151102 L7.12942154,10.7151102 L7.76010114,11.3340336 C7.87835356,11.4500817 8.03602346,11.4887644 8.19369336,11.4887644 C8.35136326,11.4887644 8.50903316,11.4500817 8.62728558,11.3340336 L9.25796518,10.7151102 L28.4542754,10.7151102 C28.7696152,10.7151102 29.0061201,10.9472065 29.0061201,11.2566681 L29.0061201,12.1850531 L28.9667026,12.1850531 Z" id="Path" fill="#A87B14"></path>
                    <g id="Group-4" transform="translate(11.000000, 2.857143)"></g>
                </g>
            </g>
        </g>
    </g>
</svg>