<?xml version="1.0" encoding="UTF-8" standalone="no"?>
<svg width="34px" height="23px" viewBox="0 0 34 23" version="1.1" xmlns="http://www.w3.org/2000/svg" xmlns:xlink="http://www.w3.org/1999/xlink">
    <!-- Generator: Sketch 41 (35326) - http://www.bohemiancoding.com/sketch -->
    <title>Slice 1</title>
    <desc>Created with Sketch.</desc>
    <defs></defs>
    <g id="Page-1" stroke="none" stroke-width="1" fill="none" fill-rule="evenodd">
        <g id="noun_632849_cc-(1)" fill="#000000">
            <g id="Group">
                <path d="M30.8,6.028 C30.8,2.728 28.116,0 24.816,0 L8.624,0 C5.324,0 2.64,2.728 2.64,6.028 L2.64,7.524 L30.8,7.524 L30.8,6.028 Z M29.48,6.204 L27.676,6.204 C27.368,4.18 25.608,2.596 23.452,2.596 C23.188,2.596 23.012,2.772 23.012,3.036 C23.012,3.3 23.188,3.476 23.452,3.476 C25.08,3.476 26.444,4.664 26.752,6.204 L3.96,6.204 L3.96,6.028 C3.96,3.432 6.072,1.32 8.624,1.32 L24.772,1.32 C27.368,1.32 29.48,3.432 29.48,6.028 L29.48,6.204 Z" id="Shape"></path>
                <path d="M31.46,10.868 L11.352,10.868 L12.188,10.032 L32.736,10.032 C33.088,10.032 33.396,9.724 33.396,9.372 C33.396,9.02 33.088,8.712 32.736,8.712 L11.924,8.712 C11.748,8.712 11.572,8.8 11.44,8.888 L8.844,11.484 L6.248,8.888 C6.116,8.756 5.94,8.712 5.764,8.712 L0.704,8.712 C0.352,8.712 0.044,9.02 0.044,9.372 C0.044,9.724 0.352,10.032 0.704,10.032 L5.544,10.032 L6.38,10.868 L1.98,10.868 C0.924,10.868 0.044,11.748 0.044,12.804 L0.044,13.86 C0.044,14.916 0.924,15.796 1.98,15.796 L2.64,15.796 L2.64,15.972 C2.64,19.272 5.324,22 8.624,22 L24.772,22 C28.116,22 30.8,19.272 30.8,15.972 L30.8,15.796 L31.46,15.796 C32.516,15.796 33.396,14.916 33.396,13.86 L33.396,12.804 C33.396,11.704 32.56,10.868 31.46,10.868 Z M29.48,15.972 C29.48,18.568 27.368,20.68 24.816,20.68 L8.624,20.68 C6.072,20.68 3.96,18.568 3.96,15.972 L3.96,15.796 L26.796,15.796 C26.488,17.336 25.124,18.524 23.496,18.524 L9.064,18.524 C8.8,18.524 8.624,18.7 8.624,18.964 C8.624,19.228 8.8,19.404 9.064,19.404 L23.452,19.404 C25.564,19.404 27.324,17.82 27.676,15.796 L29.48,15.796 L29.48,15.972 Z M32.076,13.86 C32.076,14.212 31.812,14.476 31.46,14.476 L30.8,14.476 L2.64,14.476 L1.98,14.476 C1.628,14.476 1.364,14.212 1.364,13.86 L1.364,12.804 C1.364,12.452 1.628,12.188 1.98,12.188 L7.7,12.188 L8.404,12.892 C8.536,13.024 8.712,13.068 8.888,13.068 C9.064,13.068 9.24,13.024 9.372,12.892 L10.076,12.188 L31.504,12.188 C31.856,12.188 32.12,12.452 32.12,12.804 L32.12,13.86 L32.076,13.86 Z" id="Shape"></path>
            </g>
        </g>
    </g>
</svg>