<?xml version="1.0" encoding="UTF-8" standalone="no"?>
<svg width="28px" height="19px" viewBox="0 0 28 19" version="1.1" xmlns="http://www.w3.org/2000/svg" xmlns:xlink="http://www.w3.org/1999/xlink">
    <!-- Generator: Sketch 41 (35326) - http://www.bohemiancoding.com/sketch -->
    <title>Slice 1</title>
    <desc>Created with Sketch.</desc>
    <defs></defs>
    <g id="Page-1" stroke="none" stroke-width="1" fill="none" fill-rule="evenodd">
        <g id="food_">
            <g id="Page-1">
                <g id="Group-2" transform="translate(0.141410, 0.500838)">
                    <path d="M23.8602876,4.61572059 C23.8602876,2.08886625 21.7660753,0 19.1912241,0 L6.55728767,0 C3.98243649,0 1.8882242,2.08886625 1.8882242,4.61572059 L1.8882242,5.76122789 L23.8602876,5.76122789 L23.8602876,4.61572059 Z" id="Shape" fill="#0D0A0A"></path>
                    <g id="Group" transform="translate(0.000000, 6.591794)" fill="#000000">
                        <path d="M24.7484247,1.7299797 L9.05899815,1.7299797 L9.71129378,1.08984326 L25.7440338,1.08984326 C26.0186846,1.08984326 26.259004,0.854003524 26.259004,0.584472395 C26.259004,0.314941265 26.0186846,0.0791015271 25.7440338,0.0791015271 L9.50530569,0.0791015271 C9.36798029,0.0791015271 9.2306549,0.14648431 9.12766085,0.213867092 L7.10211125,2.20165917 L5.07656166,0.213867092 C4.97356761,0.112792918 4.83624222,0.0791015271 4.69891682,0.0791015271 L0.750811677,0.0791015271 C0.476160885,0.0791015271 0.235841441,0.314941265 0.235841441,0.584472395 C0.235841441,0.854003524 0.476160885,1.08984326 0.750811677,1.08984326 L4.52726007,1.08984326 L5.17955571,1.7299797 L1.7464208,1.7299797 C0.922468423,1.7299797 0.235841441,2.40380752 0.235841441,3.21240091 L0.235841441,4.0209943 C0.235841441,4.82958768 0.922468423,5.50341551 1.7464208,5.50341551 L2.26139104,5.50341551 L2.26139104,5.63818107 C2.26139104,8.16503541 4.35560333,10.2539017 6.93045451,10.2539017 L19.5300596,10.2539017 C22.1392421,10.2539017 24.2334544,8.16503541 24.2334544,5.63818107 L24.2334544,5.50341551 L24.7484247,5.50341551 C25.5723771,5.50341551 26.259004,4.82958768 26.259004,4.0209943 L26.259004,3.21240091 C26.259004,2.37011613 25.6067084,1.7299797 24.7484247,1.7299797 Z" id="Shape"></path>
                    </g>
                    <path d="M22.8303471,4.75048616 L21.4227618,4.75048616 C21.1824424,3.20068216 19.8091884,1.98779208 18.1269523,1.98779208 C17.9209642,1.98779208 17.7836388,2.12255764 17.7836388,2.32470599 C17.7836388,2.52685434 17.9209642,2.6616199 18.1269523,2.6616199 C19.3972122,2.6616199 20.461484,3.57128747 20.7018035,4.75048616 L2.91816467,4.75048616 L2.91816467,4.61572059 C2.91816467,2.62792851 4.56606943,1.01074174 6.55728767,1.01074174 L19.1568928,1.01074174 C21.1824424,1.01074174 22.8303471,2.62792851 22.8303471,4.61572059 L22.8303471,4.75048616 Z" id="Path" fill="#FFFFFF"></path>
                    <path d="M22.8975172,12.2197211 C22.8975172,14.2075132 21.2496124,15.8247 19.2583942,15.8247 L6.6244577,15.8247 C4.63323946,15.8247 2.9853347,14.2075132 2.9853347,12.2197211 L2.9853347,12.0849555 L20.8033049,12.0849555 C20.5629854,13.2641542 19.4987136,14.1738218 18.2284537,14.1738218 L6.96777119,14.1738218 C6.7617831,14.1738218 6.6244577,14.3085874 6.6244577,14.5107357 C6.6244577,14.712884 6.7617831,14.8476496 6.96777119,14.8476496 L18.1941223,14.8476496 C19.8420271,14.8476496 21.2152811,13.6347595 21.4899318,12.0849555 L22.8975172,12.0849555 L22.8975172,12.2197211 Z" id="Path" fill="#FFFFFF"></path>
                    <path d="M25.2290636,10.6127882 C25.2290636,10.8823194 25.0230755,11.0844677 24.7484247,11.0844677 L24.2334544,11.0844677 L2.26139104,11.0844677 L1.7464208,11.0844677 C1.47177001,11.0844677 1.26578191,10.8823194 1.26578191,10.6127882 L1.26578191,9.80419484 C1.26578191,9.53466371 1.47177001,9.33251536 1.7464208,9.33251536 L6.20949618,9.33251536 L6.75879776,9.87157762 C6.86179181,9.97265179 6.99911721,10.0063432 7.1364426,10.0063432 C7.273768,10.0063432 7.4110934,9.97265179 7.51408744,9.87157762 L8.06338903,9.33251536 L24.782756,9.33251536 C25.0574068,9.33251536 25.2633949,9.53466371 25.2633949,9.80419484 L25.2633949,10.6127882 L25.2290636,10.6127882 Z" id="Path" fill="#FFFFFF"></path>
                </g>
            </g>
        </g>
    </g>
</svg>