<?xml version="1.0" standalone="no"?>
<!DOCTYPE svg PUBLIC "-//W3C//DTD SVG 20010904//EN"
 "http://www.w3.org/TR/2001/REC-SVG-20010904/DTD/svg10.dtd">
<svg version="1.0" xmlns="http://www.w3.org/2000/svg"
 width="260.000000pt" height="260.000000pt" viewBox="0 0 260.000000 260.000000"
 preserveAspectRatio="xMidYMid meet">
<metadata>
Created by potrace 1.11, written by Peter Selinger 2001-2013
</metadata>
<g transform="translate(0.000000,260.000000) scale(0.100000,-0.100000)"
fill="#000000" stroke="none">
<path d="M952 2202 c-12 -2 -20 -8 -17 -13 4 -5 -1 -9 -9 -9 -9 0 -15 -6 -13
-12 1 -7 -4 -12 -10 -10 -7 1 -13 -5 -13 -13 0 -8 -4 -15 -10 -15 -5 0 -10
-10 -10 -22 0 -19 -2 -20 -10 -8 -8 13 -10 13 -10 -1 0 -9 -7 -22 -15 -29 -8
-7 -12 -16 -9 -21 3 -5 -2 -9 -11 -9 -9 0 -13 -4 -10 -10 3 -5 1 -10 -5 -10
-6 0 -8 -4 -5 -10 3 -5 1 -10 -5 -10 -6 0 -8 -4 -5 -10 3 -5 1 -10 -4 -10 -6
0 -10 -6 -8 -12 1 -7 -4 -12 -11 -10 -8 1 -11 -2 -7 -8 4 -6 -1 -18 -11 -26
-11 -9 -12 -12 -4 -8 13 6 13 5 0 -9 -22 -22 -93 -60 -85 -45 4 7 1 6 -7 -3
-7 -9 -16 -16 -20 -15 -4 1 -16 -6 -26 -14 -10 -8 -25 -16 -33 -18 -8 -2 -19
-10 -25 -17 -6 -8 -13 -12 -16 -10 -3 3 -17 -6 -31 -19 -14 -13 -28 -21 -31
-18 -3 3 -6 0 -6 -7 0 -7 -3 -11 -8 -9 -4 2 -34 -23 -67 -55 -33 -33 -53 -56
-45 -51 8 4 -2 -9 -22 -30 -21 -21 -36 -41 -34 -45 5 -10 -32 -40 -40 -33 -4
4 -4 1 0 -6 5 -8 1 -21 -7 -30 -15 -17 -17 -21 -17 -43 0 -5 -4 -8 -9 -5 -5 3
-11 -1 -15 -9 -3 -8 -1 -15 5 -15 6 0 3 -7 -5 -16 -15 -14 -20 -28 -17 -46 0
-5 -3 -8 -9 -8 -5 0 -7 -6 -4 -14 3 -8 0 -17 -5 -21 -6 -3 -9 -11 -6 -16 4 -5
3 -9 -2 -9 -4 0 -8 -16 -8 -35 -1 -24 3 -34 12 -31 8 3 10 -1 6 -11 -4 -10 -2
-14 5 -9 6 3 13 2 17 -4 4 -6 11 -8 16 -5 5 4 9 1 9 -5 0 -7 7 -9 16 -6 8 3
12 2 9 -3 -3 -5 -1 -12 5 -16 5 -3 10 0 10 7 0 9 3 9 10 -2 5 -8 10 -11 10 -6
0 5 6 3 13 -3 8 -6 17 -8 20 -4 4 3 7 1 7 -6 0 -7 5 -9 10 -6 6 3 10 1 10 -5
0 -6 5 -8 11 -4 6 3 15 1 19 -5 4 -7 17 -13 28 -14 12 -1 22 -5 22 -9 0 -4 6
-8 14 -8 7 0 19 -7 26 -15 7 -8 16 -12 21 -9 5 3 9 1 9 -5 0 -6 8 -7 18 -4 15
6 16 5 2 -12 -8 -10 -10 -16 -5 -13 6 3 16 0 23 -8 11 -12 10 -13 -5 -10 -26
4 -57 18 -63 27 -3 4 -19 10 -35 12 -17 2 -29 9 -28 14 1 5 -7 10 -18 10 -13
1 -17 -2 -12 -10 4 -7 -1 -5 -11 3 -19 15 -31 19 -78 24 -21 3 -29 -2 -35 -18
-10 -29 -11 -66 -1 -66 4 0 5 -7 1 -15 -3 -9 2 -24 11 -34 9 -10 13 -21 9 -24
-3 -4 -1 -7 5 -7 7 0 12 -7 12 -15 0 -8 4 -15 10 -15 5 0 19 -18 30 -40 12
-23 25 -38 30 -35 6 4 10 -3 10 -14 0 -12 6 -21 14 -21 8 0 18 -9 21 -20 3
-11 12 -20 18 -20 7 0 19 -9 27 -20 8 -11 19 -20 24 -20 5 0 20 -12 34 -27 13
-16 21 -21 16 -13 -4 8 4 5 20 -8 16 -12 32 -19 37 -16 5 3 9 -3 9 -13 0 -15
2 -16 10 -3 8 13 10 13 10 -2 0 -11 7 -15 25 -14 13 2 23 -2 22 -8 -1 -6 6
-10 16 -10 9 1 17 -3 17 -8 0 -6 7 -8 15 -4 8 3 15 1 15 -4 0 -6 9 -10 20 -10
11 0 20 -6 20 -12 0 -10 3 -9 9 1 6 9 10 10 13 1 2 -6 25 -12 51 -13 32 -1 46
-6 43 -14 -3 -7 1 -10 9 -7 7 3 24 0 37 -7 22 -12 22 -11 8 7 -15 18 -14 18
12 2 20 -13 28 -14 31 -5 4 9 8 8 16 -3 9 -13 14 -13 32 -2 11 8 18 9 15 4 -3
-6 15 -12 45 -14 28 -1 53 0 56 5 2 4 9 4 15 0 18 -10 111 -3 127 10 12 10 13
9 6 -2 -6 -11 -4 -13 8 -8 10 4 17 1 17 -6 0 -9 3 -8 9 1 7 11 9 11 14 -2 4
-9 13 -16 22 -16 8 0 15 -7 15 -15 0 -9 6 -12 15 -9 8 4 15 1 15 -5 0 -6 3
-10 8 -10 18 3 33 -2 28 -9 -3 -5 0 -9 7 -10 7 0 23 -3 37 -7 14 -4 31 -7 38
-7 6 -1 12 -6 12 -11 0 -5 8 -6 17 -3 9 4 20 1 25 -6 6 -11 10 -10 17 0 7 11
9 11 13 0 3 -8 18 -13 34 -13 16 1 35 -4 43 -12 11 -12 16 -11 34 4 14 12 18
13 12 3 -8 -13 -7 -13 9 -1 15 13 16 15 1 23 -8 5 -13 13 -10 19 4 5 2 9 -4 9
-5 0 -8 9 -6 20 2 11 -1 20 -7 20 -5 0 -7 7 -4 16 3 8 2 12 -4 9 -9 -6 -14 18
-14 67 0 9 -3 15 -8 12 -4 -3 -8 9 -8 25 0 42 2 46 22 45 10 -1 15 2 13 7 -6
8 23 19 61 24 16 1 24 -3 24 -14 0 -14 2 -14 10 -1 5 8 10 10 10 4 0 -11 5
-12 50 -17 14 -1 31 -6 38 -11 7 -4 16 -6 18 -3 3 3 19 1 36 -3 42 -13 62 6
37 34 -15 16 -16 22 -6 35 9 12 9 13 0 7 -8 -4 -13 -1 -13 8 0 9 -6 16 -12 16
-10 0 -9 3 1 9 7 5 9 10 3 12 -10 4 -15 28 -13 62 0 10 5 16 10 13 5 -3 11 1
15 9 3 8 13 15 21 15 9 0 13 5 10 10 -3 6 -1 10 5 10 6 0 22 11 36 25 27 27
35 31 32 14 -2 -6 8 -13 20 -14 13 -1 27 -7 32 -14 4 -7 10 -12 14 -11 4 1 17
-1 29 -5 12 -4 25 -7 30 -6 4 1 6 -5 5 -11 -2 -7 7 -14 20 -16 12 -2 22 -8 22
-13 0 -5 6 -8 13 -7 6 2 11 -3 9 -10 -1 -8 2 -11 8 -7 5 3 13 -1 16 -9 3 -9
10 -13 15 -11 4 3 17 -2 27 -12 37 -36 67 -58 57 -43 -6 9 -1 6 10 -7 12 -13
25 -23 29 -23 5 0 16 -8 25 -18 23 -24 56 -49 48 -36 -4 7 0 15 9 18 8 3 12
10 9 16 -4 6 -11 7 -17 4 -7 -4 -7 0 1 13 7 14 7 23 -1 31 -9 9 -8 12 3 12 10
1 9 5 -5 15 -12 9 -15 15 -7 15 10 0 11 3 2 14 -8 9 -8 16 -2 20 6 4 8 13 5
21 -4 8 -11 12 -17 8 -6 -4 -7 -1 -2 8 12 19 14 49 3 55 -13 8 -9 26 5 18 6
-4 3 3 -8 16 -11 13 -15 20 -8 17 8 -5 11 2 11 23 -1 16 -5 30 -11 30 -5 0 -4
7 3 15 9 11 9 15 1 15 -7 0 -9 5 -5 12 11 18 12 48 2 48 -5 0 -6 5 -2 12 12
20 14 58 2 58 -6 0 -5 6 3 16 10 13 10 17 -2 25 -8 5 -9 9 -3 9 12 0 12 29 -1
49 -6 10 -4 12 5 6 10 -6 12 -4 7 8 -4 10 -1 17 6 17 7 0 6 4 -3 10 -12 7 -13
13 -3 28 9 15 9 22 0 31 -8 8 -6 11 9 12 18 0 18 1 -1 9 -11 5 -15 9 -10 9 6
1 10 18 9 38 0 21 5 41 10 45 7 5 6 8 -3 8 -10 0 -10 5 3 25 9 14 13 25 9 24
-19 -3 -27 2 -15 9 7 5 14 35 16 68 2 32 7 67 11 76 5 12 2 16 -12 13 -10 -2
-22 -4 -26 -4 -5 -1 -6 -5 -2 -10 3 -6 -15 -30 -39 -55 -25 -24 -42 -47 -38
-52 4 -4 2 -4 -5 -1 -6 4 -26 -8 -45 -27 -18 -18 -43 -36 -56 -40 -12 -4 -22
-12 -22 -17 0 -5 -7 -9 -16 -9 -8 0 -12 -4 -9 -10 3 -6 -1 -7 -9 -4 -9 3 -16
1 -16 -6 0 -6 -4 -9 -9 -5 -5 3 -16 -2 -25 -11 -9 -8 -21 -12 -27 -8 -8 4 -9
3 -5 -4 4 -7 3 -12 -3 -12 -5 0 -13 5 -16 11 -5 7 -15 3 -30 -11 -17 -16 -24
-18 -32 -8 -21 27 -22 36 -7 42 8 3 12 2 9 -4 -3 -5 1 -7 9 -4 16 6 13 47 -3
52 -6 2 -7 10 -4 19 4 11 2 14 -5 9 -11 -6 -18 19 -13 47 0 4 -7 7 -17 7 -14
0 -15 2 -2 10 13 8 12 10 -3 10 -10 0 -15 5 -12 10 3 6 1 10 -5 10 -6 0 -9 4
-5 10 3 5 -4 19 -15 30 -11 11 -18 25 -15 30 4 6 -1 7 -11 3 -11 -4 -15 -2
-11 4 4 6 -11 29 -32 51 -22 22 -36 43 -33 46 3 3 -1 6 -9 6 -8 0 -21 9 -29
20 -8 11 -20 20 -28 20 -7 0 -10 5 -7 10 3 6 -4 10 -16 10 -12 0 -19 3 -16 7
10 9 -13 33 -33 33 -9 0 -25 9 -35 20 -10 11 -25 20 -34 20 -14 0 -14 2 -1 10
13 8 13 10 -1 10 -19 0 -78 28 -101 47 -9 8 -23 15 -31 17 -8 1 -26 10 -42 20
-15 10 -24 13 -21 7 4 -6 3 -11 -1 -11 -5 0 -14 9 -21 21 -9 14 -20 19 -33 16
-10 -3 -19 -1 -19 5 0 5 -4 6 -10 3 -5 -3 -10 0 -10 7 0 9 -3 9 -10 -2 -6 -9
-10 -10 -10 -3 0 13 -46 32 -87 35 -7 1 -13 5 -13 10 0 4 -13 8 -29 8 -17 0
-33 5 -36 11 -4 6 -13 8 -21 5 -8 -3 -14 -2 -14 3 0 4 -10 7 -22 6 -13 -1 -29
2 -35 7 -7 6 -20 8 -28 4 -8 -3 -15 -1 -15 5 0 6 -9 8 -20 4 -12 -4 -20 -2
-20 5 0 7 -8 10 -20 7 -11 -3 -23 0 -28 7 -4 6 -17 10 -30 8z m1168 -792 c0
-5 -5 -10 -11 -10 -5 0 -7 5 -4 10 3 6 8 10 11 10 2 0 4 -4 4 -10z"/>
</g>
</svg>
